<svg viewBox="0 0 106 35" xmlns="http://www.w3.org/2000/svg" fill-rule="evenodd" clip-rule="evenodd" stroke-linejoin="round" stroke-miterlimit="2"><path fill="#bbbcbb" d="M33.84 23.1h15.02v4.098H33.84zm0-7.82h15.02v4.098H33.84zm0-7.802h15.02v4.097H33.84zm42.443-.268h3.602v20.226h-3.602zm0-7.07h3.602v4.096h-3.602z"/><path d="M16.437 6.968H.5v4.098h6.167v16.13h3.602v-16.13h6.168V6.968zm79.915 10.374l8.892-10.113h-5.095l-6.346 7.215L87.46 7.23h-5.096l8.893 10.113-8.893 10.114h5.096l6.343-7.217 6.346 7.217h5.095l-8.892-10.114zM54.23 6.967v20.227h3.601v-16.13h1.803c4.964 0 9.006 4.595 9.006 10.243v5.887h3.6v-5.887c0-7.907-5.655-14.34-12.606-14.34H54.23zM22.736 21.151c1.456 4.82.102 8.895-3.594 13.529h4.063c3.302-2.636 5.412-8.963 3.457-15.435l-.013-.03-1.697-5.66c-1.455-4.82-.101-8.894 3.597-13.528h-4.065c-3.306 2.636-5.412 8.963-3.457 15.435l1.696 5.659.013.03z" fill="#bbbcbb" fill-rule="nonzero"/></svg>