<svg viewBox="0 0 205 101" xmlns="http://www.w3.org/2000/svg" fill-rule="evenodd" clip-rule="evenodd" stroke-linejoin="round" stroke-miterlimit="2"><g transform="translate(.14 .79) scale(1.03074)"><clipPath id="a"><path d="M0 0h198.425v96.378H0z"/></clipPath><g clip-path="url(#a)"><path d="M5.669 87.109H4.195v6.689c0 .879-.198 1.531-.567 1.956-.397.426-.907.624-1.53.624-.652 0-1.191-.227-1.559-.652C.17 95.272 0 94.649 0 93.798V77.726c0-.907.198-1.559.595-1.984.425-.397 1.077-.596 1.985-.596h6.831c.935 0 1.758.029 2.409.114a6.79 6.79 0 011.815.482c.652.283 1.247.68 1.729 1.19.51.511.879 1.106 1.134 1.786.283.68.396 1.417.396 2.183 0 1.53-.425 2.778-1.303 3.713-.879.936-2.211 1.588-3.969 1.984.737.397 1.446.993 2.126 1.758.68.794 1.304 1.616 1.814 2.494.539.879.964 1.673 1.247 2.381.312.709.454 1.191.454 1.446 0 .284-.085.567-.255.822-.17.284-.425.482-.709.652a2.475 2.475 0 01-1.049.227c-.481 0-.878-.113-1.19-.34a3.35 3.35 0 01-.822-.851c-.255-.34-.567-.85-.964-1.502l-1.672-2.806c-.596-1.049-1.134-1.814-1.616-2.381-.482-.539-.964-.907-1.446-1.106-.51-.198-1.105-.283-1.871-.283zm2.41-8.788H4.195v5.755h3.77c1.021 0 1.871-.085 2.552-.284.68-.17 1.218-.453 1.587-.879.34-.425.539-1.02.539-1.757 0-.567-.142-1.077-.454-1.531-.283-.453-.68-.765-1.219-.992-.482-.198-1.446-.312-2.891-.312zm26.475.085h-9.467v5.131h8.702c.652 0 1.134.142 1.446.425.311.312.482.681.482 1.162 0 .454-.171.851-.482 1.163-.312.283-.794.425-1.446.425h-8.702v5.953h9.779c.68 0 1.162.17 1.503.481.34.284.51.709.51 1.219 0 .482-.17.907-.51 1.191-.341.312-.823.482-1.503.482H23.443c-.908 0-1.56-.227-1.956-.624-.397-.397-.624-1.077-.624-1.984V77.726c0-.595.113-1.106.283-1.474.171-.397.454-.68.851-.85.368-.171.85-.256 1.446-.256h11.111c.652 0 1.163.142 1.474.454.341.283.511.68.511 1.162 0 .51-.17.907-.511 1.191-.311.312-.822.453-1.474.453zm24.605 9.128v3.997c0 .538-.057.963-.142 1.275-.113.34-.311.624-.567.879-.283.255-.652.482-1.077.737a18.273 18.273 0 01-3.628 1.502c-1.162.312-2.41.454-3.799.454-1.587 0-3.033-.255-4.337-.737-1.332-.51-2.437-1.219-3.373-2.154-.907-.936-1.616-2.07-2.126-3.402-.482-1.361-.737-2.835-.737-4.507 0-1.616.227-3.09.709-4.45.482-1.361 1.19-2.495 2.126-3.43a9.061 9.061 0 013.43-2.155c1.332-.51 2.834-.765 4.535-.765 1.418 0 2.636.198 3.714.567 1.077.397 1.956.85 2.607 1.417.681.567 1.191 1.191 1.531 1.814.34.652.51 1.191.51 1.701 0 .539-.198.992-.595 1.361-.397.368-.85.567-1.417.567-.284 0-.595-.085-.851-.227a2.046 2.046 0 01-.708-.595c-.539-.822-.964-1.418-1.304-1.843-.369-.425-.851-.765-1.474-1.049-.595-.283-1.389-.425-2.325-.425-.963 0-1.842.17-2.607.51-.766.312-1.418.822-1.956 1.446-.539.652-.936 1.446-1.248 2.353-.283.935-.425 1.984-.425 3.09 0 2.466.567 4.337 1.673 5.669 1.133 1.304 2.693 1.984 4.677 1.984.964 0 1.899-.142 2.749-.397a13.31 13.31 0 002.58-1.105v-3.373h-3.232c-.793 0-1.389-.114-1.785-.369-.397-.227-.596-.624-.596-1.219 0-.453.17-.85.511-1.134.311-.312.765-.453 1.36-.453h4.762c.596 0 1.078.056 1.474.141.426.114.737.341.993.709.255.369.368.907.368 1.616zm4.195 6.264V77.357c0-.85.17-1.502.567-1.927a1.953 1.953 0 011.503-.652c.623 0 1.133.227 1.53.652.397.425.596 1.049.596 1.927v16.441c0 .879-.199 1.503-.596 1.928-.397.425-.907.652-1.53.652a1.995 1.995 0 01-1.503-.652c-.368-.425-.567-1.077-.567-1.928zm18.029-19.02c2.154 0 3.997.453 5.527 1.332 1.559.879 2.721 2.126 3.515 3.742s1.191 3.515 1.191 5.698c0 1.615-.227 3.089-.652 4.393a10.371 10.371 0 01-1.956 3.459 8.569 8.569 0 01-3.203 2.211c-1.276.51-2.722.765-4.337.765-1.644 0-3.09-.255-4.366-.794a8.39 8.39 0 01-3.203-2.239c-.879-.936-1.53-2.098-1.956-3.458-.453-1.333-.652-2.807-.652-4.366 0-1.587.227-3.061.681-4.422a9.613 9.613 0 011.984-3.401 8.53 8.53 0 013.175-2.155c1.247-.51 2.664-.765 4.252-.765zm5.952 10.743c0-1.53-.226-2.863-.737-3.968-.481-1.134-1.19-1.956-2.097-2.551-.907-.567-1.956-.851-3.118-.851-.851 0-1.616.142-2.325.482a4.671 4.671 0 00-1.842 1.389c-.51.595-.936 1.389-1.219 2.324-.312.936-.454 2.013-.454 3.175 0 1.191.142 2.268.454 3.232.283.964.709 1.757 1.247 2.381.539.623 1.162 1.105 1.871 1.417a5.68 5.68 0 002.324.482 5.63 5.63 0 002.948-.822c.907-.539 1.616-1.389 2.155-2.494.538-1.134.793-2.552.793-4.196zm13.352-8.192l8.078 12.302V77.216c0-.822.17-1.418.511-1.814.34-.397.822-.624 1.389-.624.623 0 1.077.198 1.445.624.34.396.51.992.51 1.814v16.412c0 1.843-.765 2.75-2.267 2.75-.369 0-.709-.057-1.021-.17a3.422 3.422 0 01-.85-.51 4.366 4.366 0 01-.709-.851 27.748 27.748 0 01-.68-.964l-7.88-12.16v12.246c0 .793-.199 1.388-.567 1.785-.369.426-.851.624-1.418.624-.595 0-1.077-.198-1.417-.624-.368-.397-.539-1.02-.539-1.785V77.868c0-.709.057-1.248.227-1.616.17-.425.454-.794.879-1.049a2.393 2.393 0 011.332-.425c.397 0 .709.085.992.198.255.114.511.284.709.511.198.198.397.453.624.793.198.34.425.681.652 1.049z" fill="#2b2a29" fill-rule="nonzero"/><path d="M136.176 87.534v3.997c0 .538-.056.963-.141 1.275-.114.34-.312.624-.567.879-.284.255-.652.482-1.077.737a18.305 18.305 0 01-3.629 1.502c-1.162.312-2.438.454-3.798.454-1.588 0-3.033-.255-4.337-.737-1.333-.51-2.438-1.219-3.373-2.154a9.482 9.482 0 01-2.126-3.402c-.482-1.361-.737-2.835-.737-4.507 0-1.616.226-3.09.708-4.45.482-1.361 1.191-2.495 2.126-3.43a9.07 9.07 0 013.43-2.155c1.332-.51 2.835-.765 4.536-.765 1.417 0 2.636.198 3.713.567 1.077.397 1.956.85 2.608 1.417.68.567 1.19 1.191 1.531 1.814.34.652.51 1.191.51 1.701 0 .539-.199.992-.596 1.361-.396.368-.85.567-1.417.567-.283 0-.595-.085-.85-.227a1.816 1.816 0 01-.709-.595c-.538-.822-.964-1.418-1.332-1.843-.34-.425-.822-.765-1.446-1.049-.595-.283-1.389-.425-2.324-.425-.964 0-1.843.17-2.608.51-.765.312-1.417.822-1.956 1.446-.539.652-.935 1.446-1.247 2.353-.284.935-.425 1.984-.425 3.09 0 2.466.566 4.337 1.672 5.669 1.134 1.304 2.693 1.984 4.677 1.984a9.63 9.63 0 002.75-.397c.85-.255 1.701-.623 2.579-1.105v-3.373h-3.231c-.794 0-1.389-.114-1.786-.369-.397-.227-.595-.624-.595-1.219 0-.453.17-.85.482-1.134.34-.312.793-.453 1.389-.453h4.762c.595 0 1.077.056 1.474.141.425.114.737.341.992.709.255.369.368.907.368 1.616zm9.667-.425h-1.474v6.689c0 .879-.199 1.531-.596 1.956-.368.426-.879.624-1.502.624-.68 0-1.191-.227-1.559-.652-.369-.454-.567-1.077-.567-1.928V77.726c0-.907.227-1.559.624-1.984.396-.397 1.048-.596 1.955-.596h6.832c.964 0 1.757.029 2.438.114a7.088 7.088 0 011.814.482 5.54 5.54 0 011.729 1.19 5.339 5.339 0 011.134 1.786c.255.68.397 1.417.397 2.183 0 1.53-.454 2.778-1.333 3.713-.85.936-2.182 1.588-3.968 1.984.765.397 1.474.993 2.154 1.758a19.72 19.72 0 013.062 4.875c.283.709.453 1.191.453 1.446 0 .284-.113.567-.283.822-.17.284-.397.482-.709.652a2.38 2.38 0 01-1.049.227c-.453 0-.85-.113-1.19-.34a3.334 3.334 0 01-.822-.851c-.227-.34-.539-.85-.936-1.502l-1.701-2.806c-.595-1.049-1.133-1.814-1.615-2.381-.482-.539-.964-.907-1.446-1.106-.482-.198-1.105-.283-1.842-.283zm2.409-8.788h-3.883v5.755h3.741c1.021 0 1.871-.085 2.551-.284.709-.17 1.219-.453 1.588-.879.368-.425.538-1.02.538-1.757 0-.567-.141-1.077-.425-1.531a2.793 2.793 0 00-1.219-.992c-.482-.198-1.474-.312-2.891-.312zm12.076 9.071V77.357c0-.85.198-1.502.595-1.927.368-.425.879-.652 1.502-.652.652 0 1.162.227 1.531.652.397.425.595 1.077.595 1.927v10.262c0 1.162.114 2.154.397 2.948.255.765.709 1.389 1.361 1.814.652.425 1.587.652 2.778.652 1.644 0 2.806-.453 3.486-1.332.681-.879 1.021-2.211 1.021-3.997V77.357c0-.878.17-1.502.567-1.927.368-.425.878-.652 1.502-.652s1.134.227 1.531.652c.397.425.595 1.049.595 1.927v10.035c0 1.644-.17 3.005-.482 4.082-.312 1.106-.907 2.069-1.786 2.891a6.465 6.465 0 01-2.636 1.531c-.992.312-2.154.482-3.487.482-1.615 0-2.976-.17-4.138-.51-1.134-.369-2.098-.907-2.806-1.616-.737-.737-1.276-1.672-1.616-2.806-.34-1.134-.51-2.466-.51-4.054zm21.458 3.77l10.658-12.841h-9.156c-.623 0-1.134-.141-1.445-.425-.341-.283-.482-.652-.482-1.134 0-.482.141-.879.482-1.162.311-.312.822-.454 1.445-.454h11.821c1.53 0 2.296.709 2.296 2.155 0 .68-.142 1.219-.397 1.644-.255.397-.765 1.049-1.531 1.984l-9.978 11.906h10.999c.652 0 1.133.141 1.445.425.312.255.482.652.482 1.134 0 .51-.17.907-.482 1.19-.312.312-.793.454-1.445.454h-13.493c-.907 0-1.588-.227-2.07-.624-.453-.425-.68-.964-.68-1.672 0-.227.028-.454.114-.652.056-.199.17-.397.283-.567.142-.17.312-.397.539-.652.226-.284.425-.51.595-.709z" fill="#fab001" fill-rule="nonzero"/><path d="M70.186 50.202l-37.276.056c-1.389 2.268-3.713 6.378-4.053 9.496l15.59.17c.936 2.098.709 11.537 14.003 9.865 7.881-.964 11.056-4.932 14.684-9.865 37.474-.113 36.17 3.884 49.379-23.782 2.211-4.677 14.202-28.233 14.145-30.756l-22.393-.17c-5.159 0-4.479 2.806-9.95 11.934-4.167 7.71-11.509 22.677-16.158 28.119-5.499 4.507-9.042 4.933-17.971 4.933z" fill="#1f1b20"/><path d="M123.704 33.676c-6.69 13.578-9.468 26.645-20.069 26.22l-14.457.057 26.901-54.567c10.998-.057 26.05-.17 40.45 1.247 3.997.397 7.682 5.159 6.038 8.504-4.536 9.213-3.969 15.25-15.676 17.121 8.278 1.134 7.881 4.224 5.641 9.128-5.697 12.501-5.839 19.247-25.682 18.85-3.741-.056-11.593-.028-13.209.029-.057 0-.907-.085-.595-.199 5.811-2.041 10.204-12.614 13.833-24.038.68-2.154-1.814-2.721-3.175-2.352zm10.205-9.61l6.208-12.104c.963-1.899.17-2.778-4.224-2.749l-9.043 17.83c4.394 0 6.067-1.078 7.059-2.977z" fill="#1f1b20" fill-rule="nonzero"/><path d="M35.32 47.594c8.73.113 41.074 1.304 46.431-1.616 1.276-1.077 1.701-1.191 2.381-2.296 11.14-18.425 14.457-25.625 17.405-30.926-30.274-1.928-32.854-1.587-43.002 12.359-4.762 4.139-9.014 6.265-14.144 8.22-4.564 2.041-7.512 10.687-9.071 14.259zm71.376-45.893c-1.276 3.373-1.19 3.288-4.337 8.901-.057.141-23.641-.794-26.277-.964-3.458-.199 4.734-5.188 11.055-8.022 5.471-2.466 20.296-1.843 19.559.085z" fill="#fab001"/></g></g></svg>